<?xml version="1.0" standalone="no"?>
<!DOCTYPE svg PUBLIC "-//W3C//DTD SVG 20010904//EN"
 "http://www.w3.org/TR/2001/REC-SVG-20010904/DTD/svg10.dtd">
<svg version="1.0" xmlns="http://www.w3.org/2000/svg"
 width="700.000000pt" height="700.000000pt" viewBox="0 0 700.000000 700.000000"
 preserveAspectRatio="xMidYMid meet">
<metadata>
Created by potrace 1.14, written by Peter Selinger 2001-2017
</metadata>
<g transform="translate(0.000000,700.000000) scale(0.100000,-0.100000)"
fill="#000000" stroke="none">
<path d="M3300 6359 c-992 -68 -1889 -658 -2346 -1543 -427 -829 -427 -1803 0
-2632 353 -683 981 -1206 1716 -1428 278 -83 526 -119 835 -118 470 0 892 101
1305 313 133 68 138 70 181 60 72 -17 198 -13 285 9 87 22 202 74 210 95 3 8
-26 55 -64 106 l-69 92 85 76 c107 96 249 253 358 397 299 398 489 871 551
1378 21 176 21 509 -1 679 -99 774 -478 1442 -1091 1922 -449 352 -987 555
-1576 595 -160 11 -212 11 -379 -1z m590 -174 c120 -19 261 -48 338 -70 42
-13 52 -20 52 -38 1 -47 30 -158 57 -213 15 -31 47 -79 71 -105 l43 -48 -83
39 c-266 124 -509 103 -668 -60 -66 -67 -119 -164 -103 -189 23 -37 101 -55
238 -56 l130 0 131 62 c161 77 226 93 369 92 139 -1 171 -11 84 -27 -120 -22
-233 -96 -295 -194 -34 -53 -61 -143 -70 -227 l-7 -73 24 7 c13 3 52 20 86 36
78 37 137 102 193 211 24 46 56 100 72 120 54 69 152 95 240 64 20 -7 81 -37
134 -67 l98 -54 -81 -6 c-185 -14 -340 -145 -399 -338 -14 -46 -19 -101 -9
-101 3 0 33 11 66 25 94 38 183 107 244 190 112 151 213 192 316 127 46 -30
206 -170 273 -240 l39 -41 39 20 c34 17 37 22 28 40 -20 37 -184 195 -284 274
-116 92 -139 131 -154 265 -6 47 -10 86 -9 87 1 1 44 -33 96 -74 792 -639
1159 -1627 976 -2629 -77 -416 -249 -798 -524 -1159 -86 -113 -320 -353 -427
-438 -65 -52 -76 -57 -120 -57 -41 0 -134 30 -134 43 0 2 44 37 98 78 126 96
333 297 435 424 464 575 658 1315 536 2043 -41 246 -115 475 -229 707 -71 144
-188 335 -204 335 -8 0 -1414 -607 -1936 -836 l-75 -33 -3 -1580 -2 -1581 64
0 c232 0 607 89 885 209 l113 49 59 -45 c32 -26 59 -49 59 -53 0 -9 -159 -83
-284 -132 -535 -209 -1175 -236 -1736 -73 -68 20 -164 52 -214 72 -108 42
-333 150 -396 191 -45 28 -45 29 -48 91 -3 90 -19 148 -57 217 l-33 62 101
-48 c56 -26 132 -57 169 -69 94 -31 131 -81 207 -277 46 -119 106 -179 209
-209 21 -6 22 -4 22 47 0 113 -49 236 -128 321 l-47 50 60 -30 c156 -78 302
-111 415 -94 131 21 226 68 307 153 50 54 103 142 103 173 0 23 -83 55 -177
68 -123 16 -193 2 -349 -71 -71 -33 -147 -65 -169 -71 -55 -16 -240 -26 -301
-16 l-49 8 71 18 c102 25 181 68 240 131 83 87 124 191 124 311 0 67 1 67
-100 19 -78 -37 -138 -102 -196 -212 -85 -163 -163 -221 -272 -205 -45 7 -216
89 -262 126 l-25 20 30 -5 c79 -15 231 38 312 108 81 71 163 228 163 313 0 22
-3 24 -27 19 -100 -23 -209 -109 -347 -270 -27 -31 -67 -67 -90 -78 -46 -24
-119 -28 -157 -8 -37 20 -124 94 -235 202 l-100 98 -42 -17 c-23 -9 -42 -19
-42 -23 0 -3 27 -37 59 -76 62 -72 135 -140 259 -238 79 -62 106 -98 123 -160
11 -39 30 -198 24 -204 -8 -9 -179 140 -300 262 -513 517 -785 1178 -785 1906
0 620 195 1184 580 1679 334 430 839 771 1368 925 136 40 294 72 452 92 143
18 557 12 700 -11z m725 -212 c66 -29 154 -73 195 -96 l75 -43 7 -64 c9 -81
32 -154 64 -202 13 -21 22 -38 19 -38 -3 0 -36 15 -73 34 -37 18 -107 48 -157
67 -49 18 -100 41 -112 52 -27 24 -83 129 -117 221 -15 38 -36 85 -48 104
l-21 34 24 -7 c13 -4 78 -32 144 -62z m875 -1625 c109 -258 159 -490 167 -778
9 -282 -21 -492 -107 -753 -110 -334 -295 -625 -556 -876 -91 -89 -269 -232
-323 -261 -14 -7 -32 5 -92 66 -81 83 -198 183 -270 231 -64 44 -194 108 -261
129 l-58 18 0 857 0 857 112 49 c148 64 1333 581 1335 582 0 1 24 -54 53 -121z
m-1414 -2624 c79 -48 148 -102 212 -166 l52 -54 -87 -32 c-49 -18 -127 -44
-175 -57 l-88 -24 0 185 c0 145 3 184 13 184 7 0 40 -16 73 -36z"/>
<path d="M2285 5725 c-95 -17 -123 -30 -250 -120 -197 -138 -396 -325 -544
-510 -610 -760 -728 -1829 -301 -2710 62 -128 161 -297 176 -302 13 -4 1589
681 1652 719 74 45 184 148 237 223 57 80 109 189 137 290 23 80 23 83 23 830
0 690 -1 757 -18 835 -81 375 -384 674 -756 744 -98 19 -258 19 -356 1z m309
-405 c43 -11 101 -32 129 -47 74 -39 188 -155 225 -229 64 -127 63 -109 60
-911 l-3 -728 -32 -67 c-36 -76 -107 -158 -168 -193 -22 -13 -296 -135 -610
-270 -314 -136 -590 -255 -614 -266 -24 -11 -45 -18 -46 -17 -2 2 -23 55 -49
118 -148 373 -186 824 -104 1225 82 399 275 766 557 1058 156 162 357 321 425
338 58 13 153 9 230 -11z"/>
</g>
</svg>
